<svg width="64" height="64" viewBox="0 0 64 64" fill="none" xmlns="http://www.w3.org/2000/svg">
<g clip-path="url(#clip0_14_614)">
<path fill-rule="evenodd" clip-rule="evenodd" d="M49.12 53.2422C48.8208 53.2113 48.5184 53.2434 48.2324 53.3364C47.9464 53.4295 47.6832 53.5813 47.4598 53.7822C47.2364 53.9831 47.0578 54.2285 46.9355 54.5026C46.8133 54.7767 46.7501 55.0733 46.7501 55.3733C46.7501 55.6732 46.8133 55.9698 46.9355 56.2439C47.0578 56.518 47.2364 56.7634 47.4598 56.9643C47.6832 57.1652 47.9464 57.3171 48.2324 57.4101C48.5184 57.5031 48.8208 57.5352 49.12 57.5043H53.3943C53.6935 57.5352 53.9959 57.5031 54.2819 57.4101C54.5679 57.3171 54.8311 57.1652 55.0545 56.9643C55.2779 56.7634 55.4565 56.518 55.5787 56.2439C55.701 55.9698 55.7642 55.6732 55.7642 55.3733C55.7642 55.0733 55.701 54.7767 55.5787 54.5026C55.4565 54.2285 55.2779 53.9831 55.0545 53.7822C54.8311 53.5813 54.5679 53.4295 54.2819 53.3364C53.9959 53.2434 53.6935 53.2113 53.3943 53.2422H49.12ZM48.9371 46.9288C48.4072 47.0015 47.9235 47.2687 47.5806 47.6782C47.2378 48.0876 47.0605 48.6099 47.0833 49.1428C47.1062 49.6758 47.3276 50.181 47.7043 50.5598C48.0809 50.9386 48.5857 51.1636 49.12 51.1909H53.3943C53.6935 51.2218 53.9959 51.1897 54.2819 51.0967C54.5679 51.0037 54.8311 50.8518 55.0545 50.6509C55.2779 50.45 55.4565 50.2046 55.5787 49.9305C55.701 49.6565 55.7642 49.3598 55.7642 49.0599C55.7642 48.7599 55.701 48.4633 55.5787 48.1892C55.4565 47.9151 55.2779 47.6697 55.0545 47.4688C54.8311 47.2679 54.5679 47.1161 54.2819 47.023C53.9959 46.93 53.6935 46.8979 53.3943 46.9288H48.9371ZM24.48 46.9288H32.3428V59.7151H24.48V55.453H25.6686C26.1973 55.3984 26.6869 55.1504 27.0428 54.7568C27.3988 54.3632 27.5958 53.852 27.5958 53.322C27.5958 52.792 27.3988 52.2808 27.0428 51.8872C26.6869 51.4936 26.1973 51.2455 25.6686 51.1909H24.48V46.9288ZM12.6629 46.9288H20.5714V51.1909H19.04C18.51 51.2636 18.0263 51.5308 17.6835 51.9403C17.3406 52.3498 17.1633 52.872 17.1862 53.405C17.209 53.9379 17.4305 54.4432 17.8071 54.8219C18.1838 55.2007 18.6886 55.4257 19.2229 55.453H20.5714V59.7151H12.6629V46.9288ZM44.8229 44.6496H57.6686V59.6468H44.8229V44.6496ZM25.5086 34.2792C25.2504 34.2897 24.9969 34.3508 24.7624 34.459C24.5279 34.5672 24.3171 34.7203 24.142 34.9097C23.9669 35.0992 23.8309 35.3211 23.7419 35.563C23.6528 35.8048 23.6123 36.0617 23.6229 36.3191C23.6334 36.5765 23.6946 36.8293 23.8031 37.0632C23.9116 37.297 24.0652 37.5072 24.2552 37.6818C24.4451 37.8564 24.6677 37.992 24.9102 38.0808C25.1527 38.1696 25.4104 38.2099 25.6686 38.1995H34.2857C34.569 38.2427 34.8583 38.2243 35.1337 38.1456C35.4092 38.067 35.6644 37.9299 35.8818 37.7437C36.0992 37.5576 36.2737 37.3268 36.3934 37.0671C36.513 36.8075 36.5749 36.5251 36.5749 36.2394C36.5749 35.9536 36.513 35.6712 36.3934 35.4116C36.2737 35.1519 36.0992 34.9211 35.8818 34.735C35.6644 34.5488 35.4092 34.4117 35.1337 34.3331C34.8583 34.2544 34.569 34.236 34.2857 34.2792H25.6686C25.6686 34.1425 25.5086 34.1425 25.5086 34.2792ZM10.4457 34.2792C10.1876 34.2897 9.93402 34.3508 9.69955 34.459C9.46508 34.5672 9.25428 34.7203 9.07917 34.9097C8.90407 35.0992 8.76809 35.3211 8.67901 35.563C8.58993 35.8048 8.54949 36.0617 8.56 36.3191C8.5705 36.5765 8.63175 36.8293 8.74024 37.0632C8.84873 37.297 9.00235 37.5072 9.19231 37.6818C9.38227 37.8564 9.60486 37.992 9.84737 38.0808C10.0899 38.1696 10.3476 38.2099 10.6057 38.1995H19.1771C19.6985 38.1995 20.1985 37.993 20.5671 37.6254C20.9357 37.2578 21.1429 36.7592 21.1429 36.2394C21.1429 35.7195 20.9357 35.2209 20.5671 34.8533C20.1985 34.4858 19.6985 34.2792 19.1771 34.2792H10.6057C10.6057 34.1425 10.6057 34.1425 10.4457 34.2792ZM34.2857 25.5955V25.7778H25.6686C25.6686 25.5955 25.5086 25.5955 25.5086 25.7778C25.2489 25.7883 24.9939 25.8497 24.758 25.9584C24.5222 26.0672 24.3101 26.2212 24.1339 26.4117C23.9578 26.6021 23.821 26.8254 23.7313 27.0686C23.6417 27.3118 23.6009 27.5702 23.6114 27.8291C23.6219 28.088 23.6835 28.3423 23.7925 28.5775C23.9016 28.8127 24.0561 29.0241 24.2471 29.1998C24.4381 29.3755 24.662 29.5119 24.9059 29.6013C25.1498 29.6907 25.4089 29.7313 25.6686 29.7208H34.2857C36.96 29.8576 36.96 25.7778 34.2857 25.5955ZM19.4057 25.5955L19.2457 25.7778H10.6057C10.6057 25.5955 10.6057 25.5955 10.4457 25.7778C10.1861 25.7883 9.93104 25.8497 9.69518 25.9584C9.45932 26.0672 9.24726 26.2212 9.07109 26.4117C8.89493 26.6021 8.75811 26.8254 8.66846 27.0686C8.5788 27.3118 8.53806 27.5702 8.54857 27.8291C8.55907 28.088 8.62062 28.3423 8.72968 28.5775C8.83875 28.8127 8.9932 29.0241 9.18423 29.1998C9.37525 29.3755 9.5991 29.5119 9.843 29.6013C10.0869 29.6907 10.3461 29.7313 10.6057 29.7208H19.1771C19.7258 29.742 20.2603 29.545 20.6633 29.1731C21.0662 28.8012 21.3045 28.285 21.3257 27.7379C21.3469 27.1909 21.1493 26.6578 20.7764 26.256C20.4035 25.8542 19.8858 25.6166 19.3371 25.5955H19.4057ZM25.7371 17.0713C25.1915 17.0713 24.6683 17.2874 24.2825 17.6721C23.8967 18.0568 23.68 18.5785 23.68 19.1225C23.68 19.6666 23.8967 20.1883 24.2825 20.573C24.6683 20.9577 25.1915 21.1738 25.7371 21.1738H34.2857C34.8313 21.1738 35.3545 20.9577 35.7403 20.573C36.1261 20.1883 36.3428 19.6666 36.3428 19.1225C36.3428 18.5785 36.1261 18.0568 35.7403 17.6721C35.3545 17.2874 34.8313 17.0713 34.2857 17.0713H25.7371ZM10.6743 17.0713C7.95428 17.0713 7.95428 21.3334 10.6743 21.1738H19.2457C19.7913 21.1738 20.3145 20.9577 20.7003 20.573C21.0861 20.1883 21.3029 19.6666 21.3029 19.1225C21.3029 18.5785 21.0861 18.0568 20.7003 17.6721C20.3145 17.2874 19.7913 17.0713 19.2457 17.0713H10.6743ZM44.96 10.5983H49.2571V25.5955H44.8229L44.96 10.5983ZM34.2857 8.54704H10.6057C7.88571 8.54704 7.88571 12.8091 10.6057 12.6268H34.2857C36.96 12.8091 36.96 8.70658 34.2857 8.54704ZM4.27428 4.28493H40.8457C40.8457 4.28493 40.6629 43.0314 40.8457 59.7151H36.2743V46.9288H36.4343C36.7335 46.9597 37.0359 46.9276 37.3219 46.8346C37.6079 46.7416 37.8711 46.5897 38.0945 46.3888C38.3179 46.1879 38.4965 45.9425 38.6187 45.6684C38.741 45.3943 38.8042 45.0977 38.8042 44.7978C38.8042 44.4978 38.741 44.2012 38.6187 43.9271C38.4965 43.653 38.3179 43.4076 38.0945 43.2067C37.8711 43.0058 37.6079 42.854 37.3219 42.7609C37.0359 42.6679 36.7335 42.6358 36.4343 42.6667H8.54857C8.24935 42.6358 7.94695 42.6679 7.66096 42.7609C7.37497 42.854 7.11176 43.0058 6.88836 43.2067C6.66496 43.4076 6.48635 43.653 6.3641 43.9271C6.24185 44.2012 6.17868 44.4978 6.17868 44.7978C6.17868 45.0977 6.24185 45.3943 6.3641 45.6684C6.48635 45.9425 6.66496 46.1879 6.88836 46.3888C7.11176 46.5897 7.37497 46.7416 7.66096 46.8346C7.94695 46.9276 8.24935 46.9597 8.54857 46.9288H8.73143V59.7151H4.27428V4.28493ZM57.5086 3.92026C57.8382 3.92553 58.1623 4.00639 58.4556 4.15658C58.7489 4.30677 59.0036 4.52226 59.2 4.78636C59.4817 5.00801 59.7072 5.29271 59.8581 5.6174C60.009 5.9421 60.0811 6.29766 60.0686 6.6553V32L55.4971 32.1596C55.1489 32.1478 54.8064 32.0677 54.4892 31.9239C54.172 31.78 53.8863 31.5752 53.6486 31.3212C53.4108 31.0672 53.2256 30.7689 53.1035 30.4435C52.9815 30.118 52.9249 29.7718 52.9371 29.4245V25.5955H55.4971C56.0258 25.5409 56.5155 25.2928 56.8714 24.8992C57.2274 24.5056 57.4244 23.9944 57.4244 23.4644C57.4244 22.9344 57.2274 22.4232 56.8714 22.0296C56.5155 21.636 56.0258 21.388 55.4971 21.3334H53.0514V14.8604H55.6114C55.9106 14.8913 56.213 14.8592 56.499 14.7662C56.785 14.6732 57.0482 14.5213 57.2716 14.3204C57.495 14.1195 57.6736 13.8741 57.7959 13.6C57.9181 13.326 57.9813 13.0293 57.9813 12.7294C57.9813 12.4294 57.9181 12.1328 57.7959 11.8587C57.6736 11.5846 57.495 11.3392 57.2716 11.1383C57.0482 10.9374 56.785 10.7856 56.499 10.6925C56.213 10.5995 55.9106 10.5674 55.6114 10.5983H53.0514V3.92026H57.5086ZM-1.78546e-06 2.05131V61.7664C-0.0028513 62.3334 0.206341 62.8811 0.586726 63.3026C0.967111 63.724 1.49137 63.9889 2.05714 64.0456H59.8857C60.173 64.0372 60.4557 63.9708 60.7165 63.8503C60.9773 63.7299 61.211 63.5579 61.4033 63.3449C61.5956 63.1318 61.7425 62.8821 61.8353 62.6108C61.928 62.3395 61.9646 62.0522 61.9428 61.7664V42.6667C61.9646 42.3809 61.928 42.0937 61.8353 41.8223C61.7425 41.551 61.5956 41.3013 61.4033 41.0883C61.211 40.8752 60.9773 40.7033 60.7165 40.5828C60.4557 40.4624 60.173 40.3959 59.8857 40.3875H44.8229V29.8576H49.12C49.1854 31.5242 49.9002 33.0997 51.1125 34.249C52.3248 35.3982 53.9388 36.0305 55.6114 36.0114H62.1257C62.621 35.9229 63.0731 35.6739 63.412 35.303C63.7509 34.9321 63.9576 34.4601 64 33.9602V6.60972C63.9686 4.84908 63.3033 3.15839 62.1257 1.84618C60.904 0.650697 59.2659 -0.0271872 57.5543 -0.0455534H51.3828C51.0962 -0.0672516 50.8082 -0.0307574 50.5361 0.0617225C50.264 0.154202 50.0136 0.300746 49.7999 0.492493C49.5862 0.68424 49.4138 0.917205 49.293 1.1773C49.1722 1.4374 49.1056 1.71922 49.0971 2.00573V6.31342H44.8229V2.05131C44.817 1.513 44.6016 0.998021 44.2219 0.615231C43.8423 0.232441 43.3283 0.0118313 42.7886 3.06219e-05H2.05714C1.51521 0.0116558 0.998715 0.231504 0.615424 0.613704C0.232133 0.995903 0.0116566 1.51093 -1.78546e-06 2.05131Z" fill="#505050"/>
</g>
<defs>
<clipPath id="clip0_14_614">
<rect width="64" height="64" fill="white"/>
</clipPath>
</defs>
</svg>
