<svg width="59" height="64" viewBox="0 0 59 64" fill="none" xmlns="http://www.w3.org/2000/svg">
<g clip-path="url(#clip0_14_604)">
<path d="M15.5799 11.102H43.3936C44.6047 11.0975 45.7861 11.4769 46.7678 12.1857C47.7495 12.8944 48.481 13.8961 48.857 15.0465L53.3271 28.3951C53.4246 28.6452 53.4573 28.9158 53.4222 29.1819C53.387 29.448 53.2852 29.7009 53.1262 29.9172C52.9671 30.1334 52.756 30.3061 52.5123 30.419C52.2687 30.532 52.0005 30.5816 51.7325 30.5633H7.29326C7.02531 30.5816 6.75707 30.532 6.51344 30.419C6.2698 30.3061 6.05866 30.1334 5.89961 29.9172C5.74056 29.7009 5.63874 29.448 5.60362 29.1819C5.56849 28.9158 5.60119 28.6452 5.69868 28.3951L10.1165 15.0988C10.4834 13.9386 11.211 12.9255 12.1935 12.2068C13.176 11.488 14.3622 11.101 15.5799 11.102ZM15.5799 5.56409C13.2012 5.56852 10.8841 6.31997 8.95616 7.71219C7.02819 9.10442 5.5869 11.067 4.83603 13.3225L0.365968 26.7755C0.0377399 27.8562 -0.034668 28.9984 0.154459 30.1118C0.343586 31.2253 0.789071 32.2795 1.45576 33.1915C2.12245 34.1034 2.9921 34.8481 3.99609 35.3666C5.00008 35.8852 6.11093 36.1635 7.24098 36.1796H51.6802C52.8147 36.1715 53.9317 35.8991 54.9423 35.384C55.953 34.8688 56.8294 34.1252 57.502 33.2122C58.1746 32.2991 58.6247 31.2419 58.8166 30.1245C59.0085 29.0071 58.9369 27.8604 58.6075 26.7755L54.1375 13.3225C53.3777 11.0767 51.9326 9.12553 50.0054 7.74323C48.0782 6.36093 45.7659 5.61709 43.3936 5.61633L15.5799 5.56409Z" fill="#505050"/>
<path d="M6.90116 30.6155C6.21737 30.6933 5.587 31.0225 5.13279 31.5392C4.67858 32.0559 4.43302 32.723 4.44393 33.4106V52.8979C4.45768 55.8451 5.63534 58.6676 7.72077 60.7516C9.80619 62.8355 12.6307 64.0124 15.5799 64.0261H43.3936C46.3428 64.0124 49.1673 62.8355 51.2528 60.7516C53.3382 58.6676 54.5158 55.8451 54.5296 52.8979V33.4106C54.5296 32.6728 54.2363 31.9651 53.7142 31.4434C53.1921 30.9217 52.484 30.6286 51.7456 30.6286C51.0072 30.6286 50.2991 30.9217 49.777 31.4434C49.2549 31.9651 48.9616 32.6728 48.9616 33.4106V52.8979C48.9686 53.6306 48.8293 54.3572 48.552 55.0355C48.2747 55.7137 47.8648 56.3298 47.3463 56.8479C46.8279 57.366 46.2113 57.7756 45.5326 58.0527C44.8539 58.3299 44.1268 58.469 43.3936 58.462H15.5799C14.8467 58.469 14.1196 58.3299 13.4409 58.0527C12.7622 57.7756 12.1456 57.366 11.6272 56.8479C11.1087 56.3298 10.6989 55.7137 10.4215 55.0355C10.1442 54.3572 10.0049 53.6306 10.0119 52.8979V33.4106C10.0186 33.0144 9.9402 32.6213 9.78186 32.2579C9.62352 31.8946 9.38897 31.5695 9.09408 31.3045C8.79918 31.0395 8.45081 30.8409 8.07249 30.722C7.69417 30.6032 7.29473 30.5668 6.90116 30.6155Z" fill="#505050"/>
<path d="M23.9449 41.7437C21.7306 41.7574 19.6109 42.6425 18.0451 44.2071C16.4793 45.7718 15.5936 47.8901 15.5799 50.1028V61.2049C15.5799 61.9427 15.8732 62.6503 16.3953 63.1721C16.9174 63.6938 17.6255 63.9869 18.3639 63.9869C19.1022 63.9869 19.8103 63.6938 20.3324 63.1721C20.8545 62.6503 21.1479 61.9427 21.1479 61.2049V50.1028C21.1206 49.7288 21.1742 49.3533 21.3052 49.0018C21.4361 48.6503 21.6412 48.3311 21.9066 48.0659C22.172 47.8008 22.4914 47.5958 22.8431 47.4649C23.1948 47.3341 23.5706 47.2805 23.9449 47.3077C24.3042 47.3069 24.6597 47.38 24.9894 47.5225C25.3191 47.6651 25.6159 47.874 25.8612 48.1363C26.1065 48.3986 26.295 48.7086 26.4151 49.0469C26.5352 49.3853 26.5841 49.7447 26.559 50.1028V61.2049C26.559 61.9462 26.8537 62.6571 27.3782 63.1813C27.9028 63.7055 28.6142 64 29.356 64C30.0979 64 30.8093 63.7055 31.3339 63.1813C31.8584 62.6571 32.1531 61.9462 32.1531 61.2049V50.1028C32.1402 47.9168 31.2761 45.8216 29.7439 44.2613C28.2118 42.7009 26.1319 41.7979 23.9449 41.7437Z" fill="#505050"/>
<path d="M40.5966 41.7437C39.9048 41.8107 39.2627 42.1328 38.7955 42.6471C38.3284 43.1614 38.0696 43.8311 38.0696 44.5257C38.0696 45.2203 38.3284 45.89 38.7955 46.4043C39.2627 46.9186 39.9048 47.2407 40.5966 47.3077H43.3936C44.0854 47.2407 44.7275 46.9186 45.1947 46.4043C45.6618 45.89 45.9206 45.2203 45.9206 44.5257C45.9206 43.8311 45.6618 43.1614 45.1947 42.6471C44.7275 42.1328 44.0854 41.8107 43.3936 41.7437H40.5966Z" fill="#505050"/>
<path d="M37.512 0.026129C36.8234 0.0978394 36.1867 0.424487 35.7271 0.941781C35.2675 1.45908 35.0183 2.12955 35.0286 2.82123V8.4898C34.9909 8.8778 35.0349 9.26938 35.1577 9.63939C35.2804 10.0094 35.4793 10.3496 35.7415 10.6383C36.0036 10.9269 36.3233 11.1576 36.68 11.3154C37.0367 11.4733 37.4225 11.5548 37.8126 11.5548C38.2027 11.5548 38.5884 11.4733 38.9451 11.3154C39.3018 11.1576 39.6215 10.9269 39.8837 10.6383C40.1459 10.3496 40.3447 10.0094 40.4675 9.63939C40.5903 9.26938 40.6342 8.8778 40.5966 8.4898V2.82123C40.6317 2.41983 40.5734 2.01575 40.4262 1.6406C40.2791 1.26545 40.0471 0.929409 39.7484 0.658744C39.4497 0.388079 39.0924 0.190134 38.7044 0.080388C38.3164 -0.0293576 37.9083 -0.0479282 37.512 0.026129Z" fill="#505050"/>
<path d="M6.95343 13.9495C6.25743 14.0428 5.62203 14.3944 5.17347 14.9343C4.7249 15.4743 4.49599 16.1631 4.53221 16.8639C4.56842 17.5647 4.86712 18.2263 5.36896 18.7172C5.8708 19.208 6.53906 19.4923 7.24098 19.5135H18.3769C19.0688 19.4465 19.7108 19.1244 20.178 18.6101C20.6451 18.0958 20.9039 17.4261 20.9039 16.7315C20.9039 16.0369 20.6451 15.3672 20.178 14.8529C19.7108 14.3386 19.0688 14.0165 18.3769 13.9495H6.95343Z" fill="#505050"/>
<path d="M43.3936 22.2825C42.7018 22.3496 42.0598 22.6717 41.5926 23.186C41.1255 23.7003 40.8667 24.37 40.8667 25.0646C40.8667 25.7592 41.1255 26.4289 41.5926 26.9432C42.0598 27.4575 42.7018 27.7795 43.3936 27.8466H54.5296C55.2214 27.7795 55.8635 27.4575 56.3306 26.9432C56.7978 26.4289 57.0566 25.7592 57.0566 25.0646C57.0566 24.37 56.7978 23.7003 56.3306 23.186C55.8635 22.6717 55.2214 22.3496 54.5296 22.2825H43.3936Z" fill="#505050"/>
</g>
<defs>
<clipPath id="clip0_14_604">
<rect width="58.9474" height="64" fill="white"/>
</clipPath>
</defs>
</svg>
