<svg width="71" height="64" viewBox="0 0 71 64" fill="none" xmlns="http://www.w3.org/2000/svg">
<g clip-path="url(#clip0_14_629)">
<path fill-rule="evenodd" clip-rule="evenodd" d="M66.2835 47.4159V59.2762H60.6289C60.6289 54.7048 56.4957 52.1651 52.0835 52.1651H18.9418C13.7182 52.1651 10.371 54.8572 10.371 59.2762H4.74175V47.4159C26.346 47.3905 47.5953 47.4159 66.2835 47.4159ZM9.48354 33.1937H61.5417C61.8575 33.1789 62.1728 33.2308 62.4673 33.3459C62.7618 33.461 63.0289 33.6368 63.2512 33.8618C63.4735 34.0869 63.6461 34.3562 63.7579 34.6524C63.8697 34.9485 63.9181 35.2649 63.9 35.581V42.6667H7.09997V35.581C7.09657 35.2665 7.15591 34.9546 7.27449 34.6634C7.39307 34.3722 7.56852 34.1077 7.79053 33.8853C8.01255 33.663 8.27666 33.4872 8.56738 33.3685C8.85811 33.2497 9.16958 33.1903 9.48354 33.1937ZM50.3339 23.9746C50.5114 23.9746 50.5367 24.127 50.6128 24.254C50.8082 24.8429 50.8941 25.4626 50.8664 26.0826V28.4445H43.7664V26.0826C43.7599 25.5257 43.8282 24.9705 43.9692 24.4318C44.0152 24.3172 44.0838 24.2131 44.1709 24.1258C44.2581 24.0385 44.362 23.9698 44.4764 23.9238C46.4205 23.648 48.3949 23.6651 50.3339 23.9746ZM26.4982 23.9746C26.7143 24.0891 26.891 24.2661 27.0053 24.4826C27.1575 25.0191 27.2259 25.5759 27.2082 26.1334V28.4953H20.1082V26.1334C20.0883 25.5439 20.148 24.9544 20.2857 24.381C20.3853 24.1541 20.5663 23.9728 20.7928 23.873C22.6842 23.5721 24.6124 23.5892 26.4982 23.9238V23.9746ZM31.5696 4.80003H40.3432C41.7508 4.68305 43.158 5.03093 44.3496 5.7905C44.5839 5.93179 44.7759 6.13373 44.9053 6.37507C45.0347 6.61642 45.0968 6.88824 45.085 7.16193C45.0816 7.74673 45.2949 8.312 45.6837 8.74831C46.0725 9.18463 46.6091 9.46097 47.1896 9.52384C50.8561 9.76994 54.4558 10.6283 57.8396 12.0635C58.35 12.3103 58.8343 12.6081 59.285 12.9524V28.4445H55.6082V26.0826C55.6166 24.9786 55.4453 23.8806 55.101 22.8318C55.3831 22.4814 55.5605 22.0583 55.6128 21.6113C55.6651 21.1643 55.5902 20.7115 55.3967 20.3053C55.2032 19.8991 54.899 19.556 54.5191 19.3155C54.1393 19.075 53.6993 18.9469 53.25 18.9461C52.7449 18.9723 52.2592 19.1492 51.8553 19.454C50.401 19.0212 48.88 18.8576 47.3671 18.9715C45.8626 18.8585 44.3501 19.022 42.9042 19.454C42.4793 19.1345 41.9648 18.9568 41.4335 18.9461C40.9844 18.9407 40.5431 19.0638 40.1615 19.3011C39.7799 19.5383 39.4739 19.8798 39.2795 20.2853C39.085 20.6908 39.0102 21.1435 39.0639 21.5901C39.1176 22.0367 39.2975 22.4587 39.5825 22.8064C39.244 23.8647 39.0813 24.9715 39.1007 26.0826V28.4445H31.95V26.0826C31.9612 24.9701 31.7899 23.8633 31.4428 22.8064C31.7215 22.4506 31.8936 22.0229 31.939 21.573C31.9844 21.1232 31.9014 20.6696 31.6995 20.2652C31.4976 19.8607 31.1851 19.522 30.7985 19.2885C30.4119 19.055 29.967 18.9362 29.5157 18.9461C29.0106 18.9723 28.5249 19.1492 28.121 19.454C26.6667 19.0212 25.1457 18.8576 23.6328 18.9715C22.1283 18.8585 20.6158 19.022 19.17 19.454C18.7151 19.0788 18.1365 18.8877 17.5481 18.9184C16.9597 18.9491 16.404 19.1993 15.9905 19.6198C15.5771 20.0403 15.3358 20.6006 15.3141 21.1903C15.2925 21.7801 15.492 22.3566 15.8735 22.8064C15.5151 23.8605 15.3434 24.9692 15.3664 26.0826V28.4445H11.8418V13.2064C12.3693 12.7463 12.9806 12.3927 13.6421 12.1651C16.9398 10.818 20.4169 9.96229 23.9625 9.62543C24.5384 9.55673 25.0688 9.27787 25.4524 8.84215C25.836 8.40643 26.0458 7.84441 26.0418 7.26352C26.0418 6.98416 26.1685 6.52701 27.0053 5.99368C28.3388 5.14921 29.8909 4.71641 31.4682 4.74924L31.5696 4.80003ZM6.87175 0.0254266C6.24632 0.0557371 5.65852 0.333649 5.23766 0.798025C4.81681 1.2624 4.59738 1.8752 4.62765 2.50162C4.65791 3.12803 4.93539 3.71675 5.39904 4.13826C5.86269 4.55977 6.47453 4.77955 7.09997 4.74924V28.8508C5.69087 29.3077 4.46852 30.2115 3.61764 31.4257C2.76676 32.6398 2.33357 34.0984 2.38354 35.581V42.6413C2.06344 42.6225 1.74301 42.6722 1.4436 42.7872C1.14419 42.9021 0.872677 43.0796 0.647144 43.3079C0.421612 43.5362 0.247241 43.81 0.135647 44.1111C0.0240538 44.4122 -0.0222 44.7336 -3.25069e-05 45.054V61.6381C-5.05345e-05 61.9504 0.0617765 62.2597 0.18187 62.5479C0.301964 62.8361 0.47794 63.0976 0.699613 63.3173C0.921286 63.5369 1.18426 63.7104 1.4733 63.8276C1.76235 63.9448 2.07173 64.0034 2.38354 64H11.8418C12.4672 64 13.067 63.7512 13.5093 63.3082C13.9515 62.8653 14.2 62.2645 14.2 61.6381C14.1338 60.9827 14.2107 60.3208 14.4252 59.6981C14.6398 59.0754 14.9869 58.5068 15.4425 58.0318C16.4172 57.2136 17.6741 56.8122 18.9418 56.9143H52.0835C52.7176 56.8608 53.3556 56.946 53.9535 57.1641C54.5513 57.3822 55.0946 57.7279 55.5457 58.1773C55.9968 58.6267 56.345 59.169 56.5659 59.7666C56.7869 60.3642 56.8754 61.0028 56.8253 61.6381C56.8253 62.2645 57.0738 62.8653 57.516 63.3082C57.9583 63.7512 58.5581 64 59.1835 64H68.6417C69.2672 64 69.867 63.7512 70.3093 63.3082C70.7515 62.8653 71 62.2645 71 61.6381V45.054C71 44.4252 70.7524 43.8218 70.3108 43.3748C69.8693 42.9278 69.2695 42.6734 68.6417 42.6667V35.581C68.6239 33.7508 67.9071 31.9969 66.6385 30.6794C65.8759 29.8698 64.9394 29.2445 63.9 28.8508V4.74924C64.2096 4.74924 64.5163 4.68814 64.8024 4.56945C65.0885 4.45075 65.3485 4.27677 65.5675 4.05745C65.7865 3.83813 65.9602 3.57775 66.0787 3.29119C66.1972 3.00463 66.2582 2.6975 66.2582 2.38733C66.2582 2.07716 66.1972 1.77003 66.0787 1.48347C65.9602 1.19691 65.7865 0.936535 65.5675 0.717212C65.3485 0.497889 65.0885 0.323913 64.8024 0.205216C64.5163 0.0865189 64.2096 0.0254266 63.9 0.0254266C62.2264 0.0254266 60.6289 0.0254266 58.9553 0.0254266C58.6456 0.0404349 58.3419 0.116388 58.0616 0.248951C57.7812 0.381514 57.5296 0.568089 57.3212 0.798025C57.1129 1.02796 56.9517 1.29675 56.8471 1.58906C56.7424 1.88136 56.6962 2.19145 56.7112 2.50162C56.7262 2.81179 56.802 3.11596 56.9344 3.39678C57.0667 3.6776 57.253 3.92955 57.4826 4.13826C57.7122 4.34697 57.9806 4.50835 58.2724 4.61318C58.5642 4.71801 58.8738 4.76424 59.1835 4.74924V7.56828C55.9892 6.28204 52.6379 5.42796 49.2182 5.0286C48.8367 3.82429 48.1143 2.75677 47.1389 1.95559C45.1213 0.552849 42.6941 -0.13536 40.2418 2.98508e-05H31.4682C28.9597 -0.0938142 26.4798 0.560267 24.3428 1.87939C23.181 2.67294 22.2948 3.80913 21.8071 5.13019C18.3832 5.59432 15.023 6.44634 11.791 7.66987V4.74924C12.1007 4.74924 12.4074 4.68814 12.6935 4.56945C12.9796 4.45075 13.2396 4.27677 13.4585 4.05745C13.6775 3.83813 13.8512 3.57775 13.9697 3.29119C14.0883 3.00463 14.1493 2.6975 14.1493 2.38733C14.1493 2.07716 14.0883 1.77003 13.9697 1.48347C13.8512 1.19691 13.6775 0.936535 13.4585 0.717212C13.2396 0.497889 12.9796 0.323913 12.6935 0.205216C12.4074 0.0865189 12.1007 0.0254266 11.791 0.0254266C10.1428 2.98265e-05 8.36782 2.98265e-05 6.87175 0.0254266Z" fill="#505050"/>
</g>
<defs>
<clipPath id="clip0_14_629">
<rect width="71" height="64" fill="white"/>
</clipPath>
</defs>
</svg>
